<!-- Animated SVG Icon for "Arthritis" Category -->
<svg width="80" height="80" viewBox="0 0 80 80" xmlns="http://www.w3.org/2000/svg" role="img" aria-labelledby="titleDesc">
  <title id="titleDesc">Arthritis</title>
  <desc>Stylized joint (knee) with warm inflammation glow and subtle pulsing</desc>

  <!-- Soft background circle -->
  <circle cx="40" cy="40" r="30" fill="#f6e8e0" />

  <!-- Inflammation glow (animated) -->
  <g>
    <circle cx="40" cy="34" r="14" fill="#ff8a65" opacity="0.18">
      <animate attributeName="opacity" values="0.18;0.45;0.18" dur="2s" repeatCount="indefinite"/>
      <animate attributeName="r" values="14;17;14" dur="2s" repeatCount="indefinite"/>
    </circle>
    <circle cx="40" cy="46" r="10" fill="#ffab91" opacity="0.10">
      <animate attributeName="opacity" values="0.10;0.28;0.10" dur="2s" repeatCount="indefinite" begin="0.2s"/>
      <animate attributeName="r" values="10;13;10" dur="2s" repeatCount="indefinite" begin="0.2s"/>
    </circle>
  </g>

  <!-- Upper bone (stylized) -->
  <path d="M26 20 C30 22, 36 26, 40 32" fill="none" stroke="#fff8f5" stroke-width="6" stroke-linecap="round" stroke-linejoin="round"/>
  <!-- Lower bone (stylized) -->
  <path d="M54 56 C50 54, 44 50, 40 44" fill="none" stroke="#fff8f5" stroke-width="6" stroke-linecap="round" stroke-linejoin="round"/>

  <!-- Joint cap (round shapes) -->
  <g transform="translate(40,38)">
    <!-- cartilage circle -->
    <circle cx="0" cy="0" r="11" fill="#ffffff" stroke="#e0e0e0" stroke-width="1.5"/>
    <!-- small cracks / texture -->
    <path d="M-6,-2 L-2,2" stroke="#ffd3c2" stroke-width="1" stroke-linecap="round"/>
    <path d="M2,-4 L5,-1" stroke="#ffd3c2" stroke-width="1" stroke-linecap="round"/>
  </g>

  <!-- Pain pulses (radiating dots) -->
  <g fill="#ff6f3c" opacity="0.0">
    <circle cx="50" cy="30" r="1.6">
      <animate attributeName="opacity" values="0;0.9;0" dur="1.6s" repeatCount="indefinite" begin="0s"/>
      <animate attributeName="r" values="1.6;3.6;1.6" dur="1.6s" repeatCount="indefinite" begin="0s"/>
    </circle>
    <circle cx="30" cy="46" r="1.3">
      <animate attributeName="opacity" values="0;0.85;0" dur="1.6s" repeatCount="indefinite" begin="0.3s"/>
      <animate attributeName="r" values="1.3;3.0;1.3" dur="1.6s" repeatCount="indefinite" begin="0.3s"/>
    </circle>
    <circle cx="44" cy="48" r="1.1">
      <animate attributeName="opacity" values="0;0.8;0" dur="1.6s" repeatCount="indefinite" begin="0.6s"/>
      <animate attributeName="r" values="1.1;2.8;1.1" dur="1.6s" repeatCount="indefinite" begin="0.6s"/>
    </circle>
  </g>

  <!-- Outline for clarity -->
  <g stroke="#6b4f3b" stroke-width="1.2" fill="none" stroke-linecap="round" stroke-linejoin="round">
    <path d="M26 20 C30 22, 36 26, 40 32"/>
    <path d="M54 56 C50 54, 44 50, 40 44"/>
    <!-- subtle connecting arc across joint -->
    <path d="M32 36 C36 40, 44 40, 48 36" />
  </g>

  <!-- small label icon (bone) bottom-left -->
  <g transform="translate(10,58)">
    <rect x="-1" y="-6" width="18" height="10" rx="3" ry="3" fill="#fff3ed" stroke="#e0b19a" stroke-width="0.9"/>
    <path d="M2,0 L6,-4 M10,0 L14,-4" stroke="#e0b19a" stroke-width="1.1" stroke-linecap="round"/>
  </g>
</svg>
